<?xml version="1.0" standalone="no"?>
<!DOCTYPE svg PUBLIC "-//W3C//DTD SVG 20010904//EN"
 "http://www.w3.org/TR/2001/REC-SVG-20010904/DTD/svg10.dtd">
<svg version="1.0" xmlns="http://www.w3.org/2000/svg"
 width="132.000000pt" height="132.000000pt" viewBox="0 0 132.000000 132.000000"
 preserveAspectRatio="xMidYMid meet">
<metadata>
Created by potrace 1.11, written by Peter Selinger 2001-2013
</metadata>
<g transform="translate(0.000000,132.000000) scale(0.100000,-0.100000)"
fill="#000000" stroke="none">
<path d="M512 1299 c-79 -20 -188 -69 -221 -100 -11 -10 -23 -19 -26 -19 -14
0 -119 -115 -151 -166 -35 -55 -77 -155 -91 -216 -4 -18 -7 -85 -7 -148 0 -99
4 -126 28 -195 73 -213 231 -364 446 -430 75 -23 229 -28 311 -11 244 52 431
225 503 467 24 79 21 302 -5 378 -113 334 -456 525 -787 440z"/>
</g>
</svg>
